<svg width="160" height="80" viewBox="0 0 160 80" xmlns="http://www.w3.org/2000/svg" shape-rendering="crispEdges">
  <!-- Outer red border (black outline in image) -->
  <rect x="0" y="36" width="8" height="8" fill="#000000"/>
  <rect x="8" y="28" width="8" height="8" fill="#000000"/>
  <rect x="8" y="36" width="8" height="8" fill="#000000"/>
  <rect x="8" y="44" width="8" height="8" fill="#000000"/>
  <rect x="16" y="20" width="8" height="8" fill="#000000"/>
  <rect x="16" y="28" width="8" height="8" fill="#000000"/>
  <rect x="16" y="44" width="8" height="8" fill="#000000"/>
  <rect x="16" y="52" width="8" height="8" fill="#000000"/>
  <rect x="24" y="20" width="8" height="8" fill="#000000"/>
  <rect x="24" y="52" width="8" height="8" fill="#000000"/>
  <rect x="32" y="28" width="8" height="8" fill="#000000"/>
  <rect x="32" y="44" width="8" height="8" fill="#000000"/>
  <rect x="40" y="36" width="8" height="8" fill="#000000"/>
  <rect x="48" y="36" width="96" height="8" fill="#000000"/>
  <rect x="144" y="28" width="8" height="8" fill="#000000"/>
  <rect x="144" y="44" width="8" height="8" fill="#000000"/>

  <!-- Red fill of the arrow -->
  <rect x="8" y="36" width="8" height="8" fill="#c62828"/>
  <rect x="16" y="28" width="8" height="8" fill="#e53935"/>
  <rect x="16" y="36" width="8" height="8" fill="#e53935"/>
  <rect x="16" y="44" width="8" height="8" fill="#e53935"/>
  <rect x="24" y="28" width="8" height="8" fill="#ef5350"/>
  <rect x="24" y="36" width="8" height="8" fill="#ef5350"/>
  <rect x="24" y="44" width="8" height="8" fill="#ef5350"/>
  <rect x="32" y="36" width="8" height="8" fill="#f44336"/>
  <rect x="40" y="36" width="104" height="8" fill="#f44336"/>
</svg>
